# MagicaVoxel @ Ephtracy

# group
o 

# material
mtllib Kinda a Tree.mtl
usemtl palette

# normals
vn -1 0 0
vn 1 0 0
vn 0 0 1
vn 0 0 -1
vn 0 -1 0
vn 0 1 0

# texcoords
vt 0.396484 0.5
vt 0.904297 0.5

# verts
v -1.4 1.6 0.9
v -1.4 1.6 -1
v -1.4 2.5 0.9
v -1.4 2.5 -1
v -1.3 2.5 0.9
v -1.3 2.5 -1
v -1.3 2.7 0.9
v -1.3 2.7 -1
v -1.2 1.6 1
v -1.2 1.6 0.9
v -1.2 1.6 -1
v -1.2 1.6 -1.1
v -1.2 2.7 1
v -1.2 2.7 0.9
v -1.2 2.7 -1
v -1.2 2.7 -1.1
v -1.1 2.7 0.9
v -1.1 2.7 -0.7
v -1.1 3 0.9
v -1.1 3 0.8
v -1.1 3 0.7
v -1.1 3 -0.7
v -1.1 3.1 0.8
v -1.1 3.1 0.7
v -1 1.6 1.1
v -1 1.6 1
v -1 2.1 1.1
v -1 2.1 1
v -1 2.7 -0.7
v -1 2.7 -1
v -1 2.8 -0.7
v -1 2.8 -1
v -1 3 0.7
v -1 3 -0.7
v -1 3.1 0.8
v -1 3.1 0.7
v -1 3.2 0.8
v -1 3.2 0.2
v -1 3.3 0.2
v -1 3.3 -0.7
v -0.9 0 0.2
v -0.9 0 -0.2
v -0.9 1.1 0.2
v -0.9 1.1 0.1
v -0.9 1.2 -0.2
v -0.9 1.2 -0.3
v -0.9 1.3 0.1
v -0.9 1.3 0
v -0.9 1.5 0
v -0.9 1.5 -0.1
v -0.9 1.6 -0.1
v -0.9 1.6 -0.3
v -0.8 0 0.3
v -0.8 0 0.2
v -0.8 0 -0.2
v -0.8 0 -0.3
v -0.8 1.1 0.2
v -0.8 1.1 0.1
v -0.8 1.2 0.3
v -0.8 1.2 0.2
v -0.8 1.2 -0.2
v -0.8 1.2 -0.3
v -0.8 1.3 0.1
v -0.8 1.3 0
v -0.8 1.3 -0.3
v -0.8 1.3 -0.4
v -0.8 1.4 0.2
v -0.8 1.4 0.1
v -0.8 1.5 0
v -0.8 1.5 -0.1
v -0.8 1.6 0.2
v -0.8 1.6 0.1
v -0.8 1.6 -0.1
v -0.8 1.6 -0.3
v -0.8 1.6 -0.4
v -0.8 1.7 0.2
v -0.8 1.7 0.1
v -0.7 1.2 0.3
v -0.7 1.2 0.2
v -0.7 1.4 0.2
v -0.7 1.4 0.1
v -0.7 1.5 0.3
v -0.7 1.5 0.2
v -0.7 1.6 0.2
v -0.7 1.6 0.1
v -0.6 0.7 -0.3
v -0.6 0.7 -0.4
v -0.6 1.3 -0.3
v -0.6 1.3 -0.4
v -0.5 0.3 -0.3
v -0.5 0.3 -0.4
v -0.5 0.7 -0.3
v -0.5 0.7 -0.4
v -0.4 0 -0.3
v -0.4 0 -0.4
v -0.4 0.3 -0.3
v -0.4 0.3 -0.4
v 0.1 2.8 -0.7
v 0.1 2.8 -0.8
v 0.1 2.9 -0.7
v 0.1 2.9 -0.8
v 0.2 1.3 0.2
v 0.2 1.3 0.1
v 0.2 1.4 0.1
v 0.2 1.4 0
v 0.2 1.5 0.2
v 0.2 1.5 0
v 0.3 1.5 0.3
v 0.3 1.5 0.2
v 0.3 1.5 0.1
v 0.3 1.6 0.3
v 0.3 1.6 0.1
v 0.4 1.4 0.3
v 0.4 1.4 0.2
v 0.4 1.5 0.3
v 0.4 1.5 0.2
v 0.4 1.5 0.1
v 0.4 1.5 0
v 0.4 1.5 -0.1
v 0.4 1.6 0.1
v 0.4 1.6 -0.1
v 0.5 1.5 -0.1
v 0.5 1.5 -0.2
v 0.5 1.6 -0.1
v 0.5 1.6 -0.2
v 0.7 3.2 0.1
v 0.7 3.2 0
v 0.7 3.3 0.1
v 0.7 3.3 0
v -0.9 1.6 0.2
v -0.9 1.6 0.1
v -0.9 1.7 0.2
v -0.9 1.7 0.1
v -0.5 0.7 0.3
v -0.5 0.7 0.2
v -0.5 1.5 0.3
v -0.5 1.5 0.2
v -0.4 0 0.3
v -0.4 0 0.2
v -0.4 0.7 0.3
v -0.4 0.7 0.2
v -0.3 0 0
v -0.3 0 -0.4
v -0.3 0.2 0
v -0.3 0.2 -0.1
v -0.3 0.3 -0.1
v -0.3 0.3 -0.2
v -0.3 0.8 -0.2
v -0.3 0.8 -0.3
v -0.3 1 -0.3
v -0.3 1 -0.4
v -0.2 0 0.2
v -0.2 0 0
v -0.2 0.2 0
v -0.2 0.2 -0.1
v -0.2 0.3 -0.1
v -0.2 0.3 -0.2
v -0.2 0.8 -0.2
v -0.2 0.8 -0.3
v -0.2 1 -0.3
v -0.2 1 -0.4
v -0.2 1.1 0.1
v -0.2 1.1 -0.2
v -0.2 1.4 0.1
v -0.2 1.4 -0.2
v -0.2 1.6 0.2
v -0.2 1.6 -0.4
v 0.2 1.3 -0.1
v 0.2 1.3 -0.2
v 0.2 1.4 -0.1
v 0.2 1.4 -0.2
v 0.2 2.7 -0.9
v 0.2 2.7 -1
v 0.2 2.8 -0.9
v 0.2 2.8 -1
v 0.3 1.1 0.1
v 0.3 1.1 -0.2
v 0.3 1.3 0.1
v 0.3 1.3 0
v 0.3 1.3 -0.1
v 0.3 1.3 -0.2
v 0.3 1.4 0
v 0.3 1.4 -0.1
v 0.3 2.7 -0.8
v 0.3 2.7 -0.9
v 0.3 2.8 -0.8
v 0.3 2.8 -0.9
v 0.3 2.9 0
v 0.3 2.9 -0.7
v 0.3 3 0.1
v 0.3 3 0
v 0.3 3.3 0.1
v 0.3 3.3 -0.7
v 0.4 1.3 0.2
v 0.4 1.3 0
v 0.4 1.4 0.2
v 0.4 1.4 0.1
v 0.4 1.5 0.1
v 0.4 1.5 0
v 0.5 1.4 0.3
v 0.5 1.4 0.1
v 0.5 1.5 0.1
v 0.5 1.5 -0.1
v 0.5 1.6 0.3
v 0.5 1.6 -0.1
v 0.5 1.6 -0.9
v 0.5 1.6 -1.1
v 0.5 2.7 -0.3
v 0.5 2.7 -0.8
v 0.5 2.7 -0.9
v 0.5 2.7 -1.1
v 0.5 2.8 0
v 0.5 2.8 -0.3
v 0.5 2.9 0
v 0.5 2.9 -0.8
v 0.6 1.5 -0.1
v 0.6 1.5 -0.2
v 0.6 1.6 -0.1
v 0.6 1.6 -0.2
v 0.6 2 -0.7
v 0.6 2 -0.9
v 0.6 2.7 0
v 0.6 2.7 -0.3
v 0.6 2.7 -0.7
v 0.6 2.7 -0.9
v 0.6 2.8 0
v 0.6 2.8 -0.3
v 0.7 2.3 0
v 0.7 2.3 -0.7
v 0.7 2.4 0.9
v 0.7 2.4 0
v 0.7 2.7 0.9
v 0.7 2.7 0
v 0.7 2.7 -0.7
v 0.7 3 0.9
v 0.7 3 0.8
v 0.7 3 0.1
v 0.7 3 0
v 0.7 3.2 0.8
v 0.7 3.2 0.2
v 0.7 3.2 0.1
v 0.8 1.6 1.1
v 0.8 1.6 -0.9
v 0.8 2 -0.7
v 0.8 2 -0.9
v 0.8 2.1 1.1
v 0.8 2.1 1
v 0.8 2.3 0
v 0.8 2.3 -0.7
v 0.8 2.4 0.9
v 0.8 2.4 0
v 0.8 2.7 1
v 0.8 2.7 0.9
v 0.8 3.2 0.2
v 0.8 3.2 0
v 0.8 3.3 0.2
v 0.8 3.3 0
v -1 1.6 1.1
v -1 2.1 1.1
v 0.8 1.6 1.1
v 0.8 2.1 1.1
v -1.2 1.6 1
v -1.2 2.7 1
v -1 1.6 1
v -1 2.1 1
v 0.8 2.1 1
v 0.8 2.7 1
v -1.4 1.6 0.9
v -1.4 2.5 0.9
v -1.3 2.5 0.9
v -1.3 2.7 0.9
v -1.2 1.6 0.9
v -1.2 2.7 0.9
v -1.1 2.7 0.9
v -1.1 3 0.9
v 0.7 2.7 0.9
v 0.7 3 0.9
v -1.1 3 0.8
v -1.1 3.1 0.8
v -1 3.1 0.8
v -1 3.2 0.8
v 0.7 3 0.8
v 0.7 3.2 0.8
v -0.8 0 0.3
v -0.8 1.2 0.3
v -0.7 1.2 0.3
v -0.7 1.5 0.3
v -0.5 0.7 0.3
v -0.5 1.5 0.3
v -0.4 0 0.3
v -0.4 0.7 0.3
v 0.3 1.5 0.3
v 0.3 1.6 0.3
v 0.4 1.4 0.3
v 0.4 1.5 0.3
v 0.5 1.4 0.3
v 0.5 1.6 0.3
v -1 3.2 0.2
v -1 3.3 0.2
v -0.9 0 0.2
v -0.9 1.1 0.2
v -0.8 0 0.2
v -0.8 1.1 0.2
v -0.8 1.2 0.2
v -0.8 1.4 0.2
v -0.7 1.2 0.2
v -0.7 1.4 0.2
v -0.7 1.5 0.2
v -0.7 1.6 0.2
v -0.5 0.7 0.2
v -0.5 1.5 0.2
v -0.4 0 0.2
v -0.4 0.7 0.2
v -0.2 0 0.2
v -0.2 1.6 0.2
v 0.2 1.3 0.2
v 0.2 1.5 0.2
v 0.3 1.5 0.2
v 0.4 1.3 0.2
v 0.4 1.4 0.2
v 0.4 1.5 0.2
v 0.7 3.2 0.2
v 0.8 3.2 0.2
v 0.8 3.3 0.2
v -0.9 1.1 0.1
v -0.9 1.3 0.1
v -0.9 1.6 0.1
v -0.9 1.7 0.1
v -0.8 1.1 0.1
v -0.8 1.3 0.1
v -0.8 1.4 0.1
v -0.8 1.6 0.1
v -0.8 1.7 0.1
v -0.7 1.4 0.1
v -0.7 1.6 0.1
v -0.2 1.1 0.1
v -0.2 1.4 0.1
v 0.2 1.3 0.1
v 0.2 1.4 0.1
v 0.3 1.1 0.1
v 0.3 1.3 0.1
v -0.9 1.3 0
v -0.9 1.5 0
v -0.8 1.3 0
v -0.8 1.5 0
v -0.9 1.5 -0.1
v -0.9 1.6 -0.1
v -0.8 1.5 -0.1
v -0.8 1.6 -0.1
v 0.5 1.5 -0.1
v 0.5 1.6 -0.1
v 0.6 1.5 -0.1
v 0.6 1.6 -0.1
v 0.7 2.4 0.9
v 0.7 2.7 0.9
v 0.8 2.4 0.9
v 0.8 2.7 0.9
v -1.1 3 0.7
v -1.1 3.1 0.7
v -1 3 0.7
v -1 3.1 0.7
v -0.9 1.6 0.2
v -0.9 1.7 0.2
v -0.8 1.6 0.2
v -0.8 1.7 0.2
v 0.3 1.5 0.1
v 0.3 1.6 0.1
v 0.3 3 0.1
v 0.3 3.3 0.1
v 0.4 1.4 0.1
v 0.4 1.5 0.1
v 0.4 1.6 0.1
v 0.5 1.4 0.1
v 0.5 1.5 0.1
v 0.7 3 0.1
v 0.7 3.2 0.1
v 0.7 3.3 0.1
v -0.3 0 0
v -0.3 0.2 0
v -0.2 0 0
v -0.2 0.2 0
v 0.2 1.4 0
v 0.2 1.5 0
v 0.3 1.3 0
v 0.3 1.4 0
v 0.3 2.9 0
v 0.3 3 0
v 0.4 1.3 0
v 0.4 1.5 0
v 0.5 2.8 0
v 0.5 2.9 0
v 0.6 2.7 0
v 0.6 2.8 0
v 0.7 2.3 0
v 0.7 2.4 0
v 0.7 2.7 0
v 0.7 3 0
v 0.7 3.2 0
v 0.7 3.3 0
v 0.8 2.3 0
v 0.8 2.4 0
v 0.8 3.2 0
v 0.8 3.3 0
v -0.3 0.2 -0.1
v -0.3 0.3 -0.1
v -0.2 0.2 -0.1
v -0.2 0.3 -0.1
v 0.2 1.3 -0.1
v 0.2 1.4 -0.1
v 0.3 1.3 -0.1
v 0.3 1.4 -0.1
v 0.4 1.5 -0.1
v 0.4 1.6 -0.1
v 0.5 1.5 -0.1
v 0.5 1.6 -0.1
v -0.9 0 -0.2
v -0.9 1.2 -0.2
v -0.8 0 -0.2
v -0.8 1.2 -0.2
v -0.3 0.3 -0.2
v -0.3 0.8 -0.2
v -0.2 0.3 -0.2
v -0.2 0.8 -0.2
v -0.2 1.1 -0.2
v -0.2 1.4 -0.2
v 0.2 1.3 -0.2
v 0.2 1.4 -0.2
v 0.3 1.1 -0.2
v 0.3 1.3 -0.2
v 0.5 1.5 -0.2
v 0.5 1.6 -0.2
v 0.6 1.5 -0.2
v 0.6 1.6 -0.2
v -0.9 1.2 -0.3
v -0.9 1.6 -0.3
v -0.8 0 -0.3
v -0.8 1.2 -0.3
v -0.8 1.3 -0.3
v -0.8 1.6 -0.3
v -0.6 0.7 -0.3
v -0.6 1.3 -0.3
v -0.5 0.3 -0.3
v -0.5 0.7 -0.3
v -0.4 0 -0.3
v -0.4 0.3 -0.3
v -0.3 0.8 -0.3
v -0.3 1 -0.3
v -0.2 0.8 -0.3
v -0.2 1 -0.3
v 0.5 2.7 -0.3
v 0.5 2.8 -0.3
v 0.6 2.7 -0.3
v 0.6 2.8 -0.3
v -0.8 1.3 -0.4
v -0.8 1.6 -0.4
v -0.6 0.7 -0.4
v -0.6 1.3 -0.4
v -0.5 0.3 -0.4
v -0.5 0.7 -0.4
v -0.4 0 -0.4
v -0.4 0.3 -0.4
v -0.3 0 -0.4
v -0.3 1 -0.4
v -0.2 1 -0.4
v -0.2 1.6 -0.4
v -1.1 2.7 -0.7
v -1.1 3 -0.7
v -1 2.7 -0.7
v -1 2.8 -0.7
v -1 3 -0.7
v -1 3.3 -0.7
v 0.1 2.8 -0.7
v 0.1 2.9 -0.7
v 0.3 2.9 -0.7
v 0.3 3.3 -0.7
v 0.6 2 -0.7
v 0.6 2.7 -0.7
v 0.7 2.3 -0.7
v 0.7 2.7 -0.7
v 0.8 2 -0.7
v 0.8 2.3 -0.7
v 0.1 2.8 -0.8
v 0.1 2.9 -0.8
v 0.3 2.7 -0.8
v 0.3 2.8 -0.8
v 0.5 2.7 -0.8
v 0.5 2.9 -0.8
v 0.2 2.7 -0.9
v 0.2 2.8 -0.9
v 0.3 2.7 -0.9
v 0.3 2.8 -0.9
v 0.5 1.6 -0.9
v 0.5 2.7 -0.9
v 0.6 2 -0.9
v 0.6 2.7 -0.9
v 0.8 1.6 -0.9
v 0.8 2 -0.9
v -1.4 1.6 -1
v -1.4 2.5 -1
v -1.3 2.5 -1
v -1.3 2.7 -1
v -1.2 1.6 -1
v -1.2 2.7 -1
v -1 2.7 -1
v -1 2.8 -1
v 0.2 2.7 -1
v 0.2 2.8 -1
v -1.2 1.6 -1.1
v -1.2 2.7 -1.1
v 0.5 1.6 -1.1
v 0.5 2.7 -1.1
v -0.8 0 0.3
v -0.4 0 0.3
v -0.9 0 0.2
v -0.8 0 0.2
v -0.4 0 0.2
v -0.2 0 0.2
v -0.3 0 0
v -0.2 0 0
v -0.9 0 -0.2
v -0.8 0 -0.2
v -0.8 0 -0.3
v -0.4 0 -0.3
v -0.4 0 -0.4
v -0.3 0 -0.4
v -0.3 0.2 0
v -0.2 0.2 0
v -0.3 0.2 -0.1
v -0.2 0.2 -0.1
v -0.3 0.3 -0.1
v -0.2 0.3 -0.1
v -0.3 0.3 -0.2
v -0.2 0.3 -0.2
v -0.5 0.3 -0.3
v -0.4 0.3 -0.3
v -0.5 0.3 -0.4
v -0.4 0.3 -0.4
v -0.6 0.7 -0.3
v -0.5 0.7 -0.3
v -0.6 0.7 -0.4
v -0.5 0.7 -0.4
v -0.3 0.8 -0.2
v -0.2 0.8 -0.2
v -0.3 0.8 -0.3
v -0.2 0.8 -0.3
v -0.3 1 -0.3
v -0.2 1 -0.3
v -0.3 1 -0.4
v -0.2 1 -0.4
v -0.2 1.1 0.1
v 0.3 1.1 0.1
v -0.2 1.1 -0.2
v 0.3 1.1 -0.2
v -0.9 1.2 -0.2
v -0.8 1.2 -0.2
v -0.9 1.2 -0.3
v -0.8 1.2 -0.3
v 0.2 1.3 0.2
v 0.4 1.3 0.2
v 0.2 1.3 0.1
v 0.3 1.3 0.1
v 0.3 1.3 0
v 0.4 1.3 0
v -0.8 1.3 -0.3
v -0.6 1.3 -0.3
v -0.8 1.3 -0.4
v -0.6 1.3 -0.4
v 0.4 1.4 0.3
v 0.5 1.4 0.3
v 0.4 1.4 0.2
v 0.4 1.4 0.1
v 0.5 1.4 0.1
v 0.3 1.5 0.3
v 0.4 1.5 0.3
v 0.3 1.5 0.2
v 0.4 1.5 0.2
v 0.4 1.5 0.1
v 0.5 1.5 0.1
v 0.4 1.5 0
v 0.4 1.5 -0.1
v 0.5 1.5 -0.1
v 0.6 1.5 -0.1
v 0.5 1.5 -0.2
v 0.6 1.5 -0.2
v -1 1.6 1.1
v 0.8 1.6 1.1
v -1.2 1.6 1
v -1 1.6 1
v -1.4 1.6 0.9
v -1.2 1.6 0.9
v 0.3 1.6 0.3
v 0.5 1.6 0.3
v -0.9 1.6 0.2
v -0.8 1.6 0.2
v -0.7 1.6 0.2
v -0.2 1.6 0.2
v -0.9 1.6 0.1
v -0.8 1.6 0.1
v -0.7 1.6 0.1
v 0.3 1.6 0.1
v 0.4 1.6 0.1
v -0.9 1.6 -0.1
v -0.8 1.6 -0.1
v 0.4 1.6 -0.1
v 0.5 1.6 -0.1
v 0.6 1.6 -0.1
v 0.5 1.6 -0.2
v 0.6 1.6 -0.2
v -0.9 1.6 -0.3
v -0.8 1.6 -0.3
v -0.8 1.6 -0.4
v -0.2 1.6 -0.4
v 0.5 1.6 -0.9
v 0.8 1.6 -0.9
v -1.4 1.6 -1
v -1.2 1.6 -1
v -1.2 1.6 -1.1
v 0.5 1.6 -1.1
v -0.9 1.7 0.2
v -0.8 1.7 0.2
v -0.9 1.7 0.1
v -0.8 1.7 0.1
v 0.7 3.2 0.2
v 0.8 3.2 0.2
v 0.7 3.2 0.1
v 0.7 3.2 0
v 0.8 3.2 0
v -0.5 0.7 0.3
v -0.4 0.7 0.3
v -0.5 0.7 0.2
v -0.4 0.7 0.2
v -0.9 1.1 0.2
v -0.8 1.1 0.2
v -0.9 1.1 0.1
v -0.8 1.1 0.1
v -0.8 1.2 0.3
v -0.7 1.2 0.3
v -0.8 1.2 0.2
v -0.7 1.2 0.2
v -0.9 1.3 0.1
v -0.8 1.3 0.1
v -0.9 1.3 0
v -0.8 1.3 0
v 0.2 1.3 -0.1
v 0.3 1.3 -0.1
v 0.2 1.3 -0.2
v 0.3 1.3 -0.2
v -0.8 1.4 0.2
v -0.7 1.4 0.2
v -0.8 1.4 0.1
v -0.7 1.4 0.1
v -0.2 1.4 0.1
v 0.2 1.4 0.1
v 0.2 1.4 0
v 0.3 1.4 0
v 0.2 1.4 -0.1
v 0.3 1.4 -0.1
v -0.2 1.4 -0.2
v 0.2 1.4 -0.2
v -0.7 1.5 0.3
v -0.5 1.5 0.3
v -0.7 1.5 0.2
v -0.5 1.5 0.2
v 0.2 1.5 0.2
v 0.3 1.5 0.2
v 0.3 1.5 0.1
v 0.4 1.5 0.1
v -0.9 1.5 0
v -0.8 1.5 0
v 0.2 1.5 0
v 0.4 1.5 0
v -0.9 1.5 -0.1
v -0.8 1.5 -0.1
v 0.6 2 -0.7
v 0.8 2 -0.7
v 0.6 2 -0.9
v 0.8 2 -0.9
v -1 2.1 1.1
v 0.8 2.1 1.1
v -1 2.1 1
v 0.8 2.1 1
v 0.7 2.3 0
v 0.8 2.3 0
v 0.7 2.3 -0.7
v 0.8 2.3 -0.7
v 0.7 2.4 0.9
v 0.8 2.4 0.9
v 0.7 2.4 0
v 0.8 2.4 0
v -1.4 2.5 0.9
v -1.3 2.5 0.9
v -1.4 2.5 -1
v -1.3 2.5 -1
v -1.2 2.7 1
v 0.8 2.7 1
v -1.3 2.7 0.9
v -1.2 2.7 0.9
v -1.1 2.7 0.9
v 0.7 2.7 0.9
v 0.8 2.7 0.9
v 0.6 2.7 0
v 0.7 2.7 0
v 0.5 2.7 -0.3
v 0.6 2.7 -0.3
v -1.1 2.7 -0.7
v -1 2.7 -0.7
v 0.6 2.7 -0.7
v 0.7 2.7 -0.7
v 0.3 2.7 -0.8
v 0.5 2.7 -0.8
v 0.2 2.7 -0.9
v 0.3 2.7 -0.9
v 0.5 2.7 -0.9
v 0.6 2.7 -0.9
v -1.3 2.7 -1
v -1.2 2.7 -1
v -1 2.7 -1
v 0.2 2.7 -1
v -1.2 2.7 -1.1
v 0.5 2.7 -1.1
v 0.5 2.8 0
v 0.6 2.8 0
v 0.5 2.8 -0.3
v 0.6 2.8 -0.3
v -1 2.8 -0.7
v 0.1 2.8 -0.7
v 0.1 2.8 -0.8
v 0.3 2.8 -0.8
v 0.2 2.8 -0.9
v 0.3 2.8 -0.9
v -1 2.8 -1
v 0.2 2.8 -1
v 0.3 2.9 0
v 0.5 2.9 0
v 0.1 2.9 -0.7
v 0.3 2.9 -0.7
v 0.1 2.9 -0.8
v 0.5 2.9 -0.8
v -1.1 3 0.9
v 0.7 3 0.9
v -1.1 3 0.8
v 0.7 3 0.8
v -1.1 3 0.7
v -1 3 0.7
v 0.3 3 0.1
v 0.7 3 0.1
v 0.3 3 0
v 0.7 3 0
v -1.1 3 -0.7
v -1 3 -0.7
v -1.1 3.1 0.8
v -1 3.1 0.8
v -1.1 3.1 0.7
v -1 3.1 0.7
v -1 3.2 0.8
v 0.7 3.2 0.8
v -1 3.2 0.2
v 0.7 3.2 0.2
v -1 3.3 0.2
v 0.8 3.3 0.2
v 0.3 3.3 0.1
v 0.7 3.3 0.1
v 0.7 3.3 0
v 0.8 3.3 0
v -1 3.3 -0.7
v 0.3 3.3 -0.7

# faces
f 3/2/1 2/2/1 1/2/1
f 4/2/1 2/2/1 3/2/1
f 7/2/1 6/2/1 5/2/1
f 8/2/1 6/2/1 7/2/1
f 13/2/1 10/2/1 9/2/1
f 14/2/1 10/2/1 13/2/1
f 15/2/1 12/2/1 11/2/1
f 16/2/1 12/2/1 15/2/1
f 19/2/1 18/2/1 17/2/1
f 20/2/1 18/2/1 19/2/1
f 21/2/1 18/2/1 20/2/1
f 22/2/1 18/2/1 21/2/1
f 23/2/1 21/2/1 20/2/1
f 24/2/1 21/2/1 23/2/1
f 27/2/1 26/2/1 25/2/1
f 28/2/1 26/2/1 27/2/1
f 31/2/1 30/2/1 29/2/1
f 32/2/1 30/2/1 31/2/1
f 36/2/1 34/2/1 33/2/1
f 37/2/1 36/2/1 35/2/1
f 38/2/1 34/2/1 36/2/1
f 38/2/1 36/2/1 37/2/1
f 39/2/1 34/2/1 38/2/1
f 40/2/1 34/2/1 39/2/1
f 43/1/1 42/1/1 41/1/1
f 44/1/1 42/1/1 43/1/1
f 45/1/1 42/1/1 44/1/1
f 47/1/1 45/1/1 44/1/1
f 47/1/1 46/1/1 45/1/1
f 48/1/1 46/1/1 47/1/1
f 49/1/1 46/1/1 48/1/1
f 50/1/1 46/1/1 49/1/1
f 51/1/1 46/1/1 50/1/1
f 52/1/1 46/1/1 51/1/1
f 57/1/1 54/1/1 53/1/1
f 59/1/1 57/1/1 53/1/1
f 59/1/1 58/1/1 57/1/1
f 60/1/1 58/1/1 59/1/1
f 61/1/1 56/1/1 55/1/1
f 62/1/1 56/1/1 61/1/1
f 63/1/1 58/1/1 60/1/1
f 67/1/1 64/1/1 63/1/1
f 67/1/1 63/1/1 60/1/1
f 68/1/1 64/1/1 67/1/1
f 69/1/1 64/1/1 68/1/1
f 72/1/1 69/1/1 68/1/1
f 72/1/1 70/1/1 69/1/1
f 73/1/1 70/1/1 72/1/1
f 74/1/1 66/1/1 65/1/1
f 75/1/1 66/1/1 74/1/1
f 76/2/1 72/2/1 71/2/1
f 77/2/1 72/2/1 76/2/1
f 80/1/1 79/1/1 78/1/1
f 82/1/1 80/1/1 78/1/1
f 82/1/1 81/1/1 80/1/1
f 83/1/1 81/1/1 82/1/1
f 84/1/1 81/1/1 83/1/1
f 85/1/1 81/1/1 84/1/1
f 88/1/1 87/1/1 86/1/1
f 89/1/1 87/1/1 88/1/1
f 92/1/1 91/1/1 90/1/1
f 93/1/1 91/1/1 92/1/1
f 96/1/1 95/1/1 94/1/1
f 97/1/1 95/1/1 96/1/1
f 100/2/1 99/2/1 98/2/1
f 101/2/1 99/2/1 100/2/1
f 104/1/1 103/1/1 102/1/1
f 106/1/1 104/1/1 102/1/1
f 106/1/1 105/1/1 104/1/1
f 107/1/1 105/1/1 106/1/1
f 111/1/1 109/1/1 108/1/1
f 111/1/1 110/1/1 109/1/1
f 112/1/1 110/1/1 111/1/1
f 115/1/1 114/1/1 113/1/1
f 116/1/1 114/1/1 115/1/1
f 120/1/1 119/1/1 118/1/1
f 120/1/1 118/1/1 117/1/1
f 121/1/1 119/1/1 120/1/1
f 124/1/1 123/1/1 122/1/1
f 125/1/1 123/1/1 124/1/1
f 128/2/1 127/2/1 126/2/1
f 129/2/1 127/2/1 128/2/1
f 130/2/2 131/2/2 132/2/2
f 132/2/2 131/2/2 133/2/2
f 134/1/2 135/1/2 136/1/2
f 136/1/2 135/1/2 137/1/2
f 138/1/2 139/1/2 140/1/2
f 140/1/2 139/1/2 141/1/2
f 142/1/2 143/1/2 144/1/2
f 144/1/2 143/1/2 145/1/2
f 145/1/2 143/1/2 146/1/2
f 146/1/2 143/1/2 147/1/2
f 147/1/2 143/1/2 148/1/2
f 148/1/2 143/1/2 149/1/2
f 149/1/2 143/1/2 150/1/2
f 150/1/2 143/1/2 151/1/2
f 152/1/2 153/1/2 154/1/2
f 154/1/2 155/1/2 156/1/2
f 156/1/2 157/1/2 158/1/2
f 158/1/2 159/1/2 160/1/2
f 152/1/2 154/1/2 162/1/2
f 160/1/2 161/1/2 162/1/2
f 158/1/2 160/1/2 162/1/2
f 156/1/2 158/1/2 162/1/2
f 154/1/2 156/1/2 162/1/2
f 162/1/2 161/1/2 163/1/2
f 152/1/2 162/1/2 164/1/2
f 163/1/2 161/1/2 165/1/2
f 152/1/2 164/1/2 166/1/2
f 164/1/2 165/1/2 166/1/2
f 165/1/2 161/1/2 167/1/2
f 166/1/2 165/1/2 167/1/2
f 168/1/2 169/1/2 170/1/2
f 170/1/2 169/1/2 171/1/2
f 172/2/2 173/2/2 174/2/2
f 174/2/2 173/2/2 175/2/2
f 176/1/2 177/1/2 178/1/2
f 178/1/2 177/1/2 179/1/2
f 179/1/2 177/1/2 180/1/2
f 180/1/2 177/1/2 181/1/2
f 179/1/2 180/1/2 182/1/2
f 182/1/2 180/1/2 183/1/2
f 184/2/2 185/2/2 186/2/2
f 186/2/2 185/2/2 187/2/2
f 188/2/2 189/2/2 191/2/2
f 190/2/2 191/2/2 192/2/2
f 191/2/2 189/2/2 193/2/2
f 192/2/2 191/2/2 193/2/2
f 194/1/2 195/1/2 196/1/2
f 196/1/2 195/1/2 197/1/2
f 197/1/2 195/1/2 198/1/2
f 198/1/2 195/1/2 199/1/2
f 200/1/2 201/1/2 202/1/2
f 200/1/2 202/1/2 204/1/2
f 202/1/2 203/1/2 204/1/2
f 204/1/2 203/1/2 205/1/2
f 206/2/2 207/2/2 210/2/2
f 210/2/2 207/2/2 211/2/2
f 208/2/2 209/2/2 213/2/2
f 212/2/2 213/2/2 214/2/2
f 213/2/2 209/2/2 215/2/2
f 214/2/2 213/2/2 215/2/2
f 216/1/2 217/1/2 218/1/2
f 218/1/2 217/1/2 219/1/2
f 220/2/2 221/2/2 224/2/2
f 224/2/2 221/2/2 225/2/2
f 222/2/2 223/2/2 226/2/2
f 226/2/2 223/2/2 227/2/2
f 228/2/2 229/2/2 231/2/2
f 230/2/2 231/2/2 232/2/2
f 231/2/2 229/2/2 233/2/2
f 232/2/2 231/2/2 233/2/2
f 233/2/2 229/2/2 234/2/2
f 232/2/2 233/2/2 235/2/2
f 235/2/2 233/2/2 236/2/2
f 236/2/2 233/2/2 237/2/2
f 237/2/2 233/2/2 238/2/2
f 236/2/2 237/2/2 239/2/2
f 239/2/2 237/2/2 240/2/2
f 240/2/2 237/2/2 241/2/2
f 242/2/2 243/2/2 244/2/2
f 244/2/2 243/2/2 245/2/2
f 242/2/2 244/2/2 246/2/2
f 246/2/2 244/2/2 247/2/2
f 247/2/2 244/2/2 248/2/2
f 248/2/2 244/2/2 249/2/2
f 247/2/2 248/2/2 250/2/2
f 250/2/2 248/2/2 251/2/2
f 247/2/2 250/2/2 252/2/2
f 252/2/2 250/2/2 253/2/2
f 254/2/2 255/2/2 256/2/2
f 256/2/2 255/2/2 257/2/2
f 260/2/3 259/2/3 258/2/3
f 261/2/3 259/2/3 260/2/3
f 264/2/3 263/2/3 262/2/3
f 265/2/3 263/2/3 264/2/3
f 266/2/3 263/2/3 265/2/3
f 267/2/3 263/2/3 266/2/3
f 270/2/3 269/2/3 268/2/3
f 272/2/3 270/2/3 268/2/3
f 272/2/3 271/2/3 270/2/3
f 273/2/3 271/2/3 272/2/3
f 276/2/3 275/2/3 274/2/3
f 277/2/3 275/2/3 276/2/3
f 280/2/3 279/2/3 278/2/3
f 282/2/3 280/2/3 278/2/3
f 282/2/3 281/2/3 280/2/3
f 283/2/3 281/2/3 282/2/3
f 286/1/3 285/1/3 284/1/3
f 288/1/3 286/1/3 284/1/3
f 288/1/3 287/1/3 286/1/3
f 289/1/3 287/1/3 288/1/3
f 290/1/3 288/1/3 284/1/3
f 291/1/3 288/1/3 290/1/3
f 295/1/3 293/1/3 292/1/3
f 296/1/3 295/1/3 294/1/3
f 297/1/3 293/1/3 295/1/3
f 297/1/3 295/1/3 296/1/3
f 302/1/3 301/1/3 300/1/3
f 303/1/3 301/1/3 302/1/3
f 306/1/3 305/1/3 304/1/3
f 307/1/3 305/1/3 306/1/3
f 311/1/3 309/1/3 308/1/3
f 313/1/3 311/1/3 310/1/3
f 314/1/3 313/1/3 312/1/3
f 315/1/3 309/1/3 311/1/3
f 315/1/3 313/1/3 314/1/3
f 315/1/3 311/1/3 313/1/3
f 318/1/3 317/1/3 316/1/3
f 319/1/3 318/1/3 316/1/3
f 320/1/3 318/1/3 319/1/3
f 321/1/3 318/1/3 320/1/3
f 322/2/3 299/2/3 298/2/3
f 323/2/3 299/2/3 322/2/3
f 324/2/3 299/2/3 323/2/3
f 329/1/3 326/1/3 325/1/3
f 330/1/3 326/1/3 329/1/3
f 332/2/3 328/2/3 327/2/3
f 333/2/3 328/2/3 332/2/3
f 334/1/3 332/1/3 331/1/3
f 335/1/3 332/1/3 334/1/3
f 338/1/3 337/1/3 336/1/3
f 339/1/3 337/1/3 338/1/3
f 340/1/3 338/1/3 336/1/3
f 341/1/3 338/1/3 340/1/3
f 344/1/3 343/1/3 342/1/3
f 345/1/3 343/1/3 344/1/3
f 348/1/3 347/1/3 346/1/3
f 349/1/3 347/1/3 348/1/3
f 352/1/3 351/1/3 350/1/3
f 353/1/3 351/1/3 352/1/3
f 354/2/4 355/2/4 356/2/4
f 356/2/4 355/2/4 357/2/4
f 358/2/4 359/2/4 360/2/4
f 360/2/4 359/2/4 361/2/4
f 362/2/4 363/2/4 364/2/4
f 364/2/4 363/2/4 365/2/4
f 366/1/4 367/1/4 371/1/4
f 371/1/4 367/1/4 372/1/4
f 370/1/4 371/1/4 373/1/4
f 373/1/4 371/1/4 374/1/4
f 368/2/4 369/2/4 375/2/4
f 375/2/4 369/2/4 376/2/4
f 376/2/4 369/2/4 377/2/4
f 378/1/4 379/1/4 380/1/4
f 380/1/4 379/1/4 381/1/4
f 382/1/4 383/1/4 385/1/4
f 384/1/4 385/1/4 388/1/4
f 385/1/4 383/1/4 389/1/4
f 388/1/4 385/1/4 389/1/4
f 386/2/4 387/2/4 391/2/4
f 390/2/4 391/2/4 393/2/4
f 392/2/4 393/2/4 396/2/4
f 391/2/4 387/2/4 397/2/4
f 396/2/4 393/2/4 397/2/4
f 393/2/4 391/2/4 397/2/4
f 394/2/4 395/2/4 400/2/4
f 400/2/4 395/2/4 401/2/4
f 398/2/4 399/2/4 402/2/4
f 402/2/4 399/2/4 403/2/4
f 404/1/4 405/1/4 406/1/4
f 406/1/4 405/1/4 407/1/4
f 408/1/4 409/1/4 410/1/4
f 410/1/4 409/1/4 411/1/4
f 412/1/4 413/1/4 414/1/4
f 414/1/4 413/1/4 415/1/4
f 416/1/4 417/1/4 418/1/4
f 418/1/4 417/1/4 419/1/4
f 420/1/4 421/1/4 422/1/4
f 422/1/4 421/1/4 423/1/4
f 424/1/4 425/1/4 426/1/4
f 426/1/4 425/1/4 427/1/4
f 424/1/4 426/1/4 428/1/4
f 428/1/4 426/1/4 429/1/4
f 430/1/4 431/1/4 432/1/4
f 432/1/4 431/1/4 433/1/4
f 434/1/4 435/1/4 437/1/4
f 437/1/4 435/1/4 438/1/4
f 438/1/4 435/1/4 439/1/4
f 436/1/4 437/1/4 440/1/4
f 437/1/4 438/1/4 440/1/4
f 440/1/4 438/1/4 441/1/4
f 436/1/4 440/1/4 442/1/4
f 442/1/4 440/1/4 443/1/4
f 436/1/4 442/1/4 444/1/4
f 444/1/4 442/1/4 445/1/4
f 446/1/4 447/1/4 448/1/4
f 448/1/4 447/1/4 449/1/4
f 450/2/4 451/2/4 452/2/4
f 452/2/4 451/2/4 453/2/4
f 454/1/4 455/1/4 457/1/4
f 456/1/4 457/1/4 459/1/4
f 458/1/4 459/1/4 461/1/4
f 460/1/4 461/1/4 462/1/4
f 459/1/4 457/1/4 463/1/4
f 462/1/4 461/1/4 463/1/4
f 461/1/4 459/1/4 463/1/4
f 463/1/4 457/1/4 464/1/4
f 457/1/4 455/1/4 465/1/4
f 464/1/4 457/1/4 465/1/4
f 466/2/4 467/2/4 468/2/4
f 468/2/4 467/2/4 469/2/4
f 469/2/4 467/2/4 470/2/4
f 470/2/4 471/2/4 472/2/4
f 469/2/4 470/2/4 472/2/4
f 472/2/4 471/2/4 473/2/4
f 473/2/4 471/2/4 474/2/4
f 474/2/4 471/2/4 475/2/4
f 476/2/4 477/2/4 478/2/4
f 478/2/4 477/2/4 479/2/4
f 476/2/4 478/2/4 480/2/4
f 480/2/4 478/2/4 481/2/4
f 482/2/4 483/2/4 485/2/4
f 484/2/4 485/2/4 486/2/4
f 485/2/4 483/2/4 487/2/4
f 486/2/4 485/2/4 487/2/4
f 488/2/4 489/2/4 490/2/4
f 490/2/4 489/2/4 491/2/4
f 492/2/4 493/2/4 494/2/4
f 494/2/4 493/2/4 495/2/4
f 492/2/4 494/2/4 496/2/4
f 496/2/4 494/2/4 497/2/4
f 498/2/4 499/2/4 500/2/4
f 498/2/4 500/2/4 502/2/4
f 500/2/4 501/2/4 502/2/4
f 502/2/4 501/2/4 503/2/4
f 504/2/4 505/2/4 506/2/4
f 506/2/4 505/2/4 507/2/4
f 508/2/4 509/2/4 510/2/4
f 510/2/4 509/2/4 511/2/4
f 515/1/5 513/1/5 512/1/5
f 516/1/5 513/1/5 515/1/5
f 518/1/5 515/1/5 514/1/5
f 518/1/5 517/1/5 516/1/5
f 518/1/5 516/1/5 515/1/5
f 519/1/5 517/1/5 518/1/5
f 520/1/5 518/1/5 514/1/5
f 521/1/5 518/1/5 520/1/5
f 522/1/5 518/1/5 521/1/5
f 523/1/5 518/1/5 522/1/5
f 524/1/5 518/1/5 523/1/5
f 525/1/5 518/1/5 524/1/5
f 528/1/5 527/1/5 526/1/5
f 529/1/5 527/1/5 528/1/5
f 532/1/5 531/1/5 530/1/5
f 533/1/5 531/1/5 532/1/5
f 536/1/5 535/1/5 534/1/5
f 537/1/5 535/1/5 536/1/5
f 540/1/5 539/1/5 538/1/5
f 541/1/5 539/1/5 540/1/5
f 544/1/5 543/1/5 542/1/5
f 545/1/5 543/1/5 544/1/5
f 548/1/5 547/1/5 546/1/5
f 549/1/5 547/1/5 548/1/5
f 552/1/5 551/1/5 550/1/5
f 553/1/5 551/1/5 552/1/5
f 556/1/5 555/1/5 554/1/5
f 557/1/5 555/1/5 556/1/5
f 560/1/5 559/1/5 558/1/5
f 561/1/5 559/1/5 560/1/5
f 562/1/5 559/1/5 561/1/5
f 563/1/5 559/1/5 562/1/5
f 566/1/5 565/1/5 564/1/5
f 567/1/5 565/1/5 566/1/5
f 570/1/5 569/1/5 568/1/5
f 571/1/5 569/1/5 570/1/5
f 572/1/5 569/1/5 571/1/5
f 575/1/5 574/1/5 573/1/5
f 576/1/5 574/1/5 575/1/5
f 579/1/5 578/1/5 577/1/5
f 580/1/5 578/1/5 579/1/5
f 581/1/5 578/1/5 580/1/5
f 583/1/5 582/1/5 581/1/5
f 584/1/5 582/1/5 583/1/5
f 588/2/5 586/2/5 585/2/5
f 590/2/5 588/2/5 587/2/5
f 591/2/5 586/2/5 588/2/5
f 591/2/5 590/2/5 589/2/5
f 591/2/5 588/2/5 590/2/5
f 592/2/5 586/2/5 591/2/5
f 593/2/5 591/2/5 589/2/5
f 594/2/5 591/2/5 593/2/5
f 595/2/5 591/2/5 594/2/5
f 596/2/5 591/2/5 595/2/5
f 597/2/5 593/2/5 589/2/5
f 598/2/5 595/2/5 594/2/5
f 599/2/5 595/2/5 598/2/5
f 600/2/5 591/2/5 596/2/5
f 602/2/5 597/2/5 589/2/5
f 602/2/5 598/2/5 597/2/5
f 603/2/5 598/2/5 602/2/5
f 604/2/5 601/2/5 600/2/5
f 605/2/5 586/2/5 592/2/5
f 606/2/5 586/2/5 605/2/5
f 607/2/5 605/2/5 604/2/5
f 608/2/5 586/2/5 606/2/5
f 609/2/5 602/2/5 589/2/5
f 611/2/5 610/2/5 609/2/5
f 612/2/5 604/2/5 600/2/5
f 612/2/5 607/2/5 604/2/5
f 612/2/5 600/2/5 596/2/5
f 612/2/5 608/2/5 607/2/5
f 613/2/5 608/2/5 612/2/5
f 613/2/5 612/2/5 611/2/5
f 614/2/5 586/2/5 608/2/5
f 614/2/5 608/2/5 613/2/5
f 615/2/5 611/2/5 609/2/5
f 615/2/5 609/2/5 589/2/5
f 615/2/5 613/2/5 611/2/5
f 616/2/5 613/2/5 615/2/5
f 617/2/5 613/2/5 616/2/5
f 618/2/5 613/2/5 617/2/5
f 621/2/5 620/2/5 619/2/5
f 622/2/5 620/2/5 621/2/5
f 625/2/5 624/2/5 623/2/5
f 626/2/5 624/2/5 625/2/5
f 627/2/5 624/2/5 626/2/5
f 628/1/6 629/1/6 630/1/6
f 630/1/6 629/1/6 631/1/6
f 632/1/6 633/1/6 634/1/6
f 634/1/6 633/1/6 635/1/6
f 636/1/6 637/1/6 638/1/6
f 638/1/6 637/1/6 639/1/6
f 640/1/6 641/1/6 642/1/6
f 642/1/6 641/1/6 643/1/6
f 644/1/6 645/1/6 646/1/6
f 646/1/6 645/1/6 647/1/6
f 648/1/6 649/1/6 650/1/6
f 650/1/6 649/1/6 651/1/6
f 652/1/6 653/1/6 654/1/6
f 652/1/6 654/1/6 656/1/6
f 654/1/6 655/1/6 656/1/6
f 656/1/6 655/1/6 657/1/6
f 652/1/6 656/1/6 658/1/6
f 658/1/6 656/1/6 659/1/6
f 660/1/6 661/1/6 662/1/6
f 662/1/6 661/1/6 663/1/6
f 664/1/6 665/1/6 666/1/6
f 664/1/6 666/1/6 670/1/6
f 666/1/6 667/1/6 670/1/6
f 670/1/6 667/1/6 671/1/6
f 668/1/6 669/1/6 672/1/6
f 672/1/6 669/1/6 673/1/6
f 674/2/6 675/2/6 676/2/6
f 676/2/6 675/2/6 677/2/6
f 678/2/6 679/2/6 680/2/6
f 680/2/6 679/2/6 681/2/6
f 682/2/6 683/2/6 684/2/6
f 684/2/6 683/2/6 685/2/6
f 686/2/6 687/2/6 688/2/6
f 688/2/6 687/2/6 689/2/6
f 690/2/6 691/2/6 692/2/6
f 692/2/6 691/2/6 693/2/6
f 694/2/6 695/2/6 697/2/6
f 697/2/6 695/2/6 698/2/6
f 698/2/6 695/2/6 699/2/6
f 699/2/6 695/2/6 700/2/6
f 701/2/6 702/2/6 704/2/6
f 696/2/6 697/2/6 705/2/6
f 697/2/6 698/2/6 705/2/6
f 703/2/6 704/2/6 707/2/6
f 704/2/6 702/2/6 707/2/6
f 707/2/6 702/2/6 708/2/6
f 703/2/6 707/2/6 710/2/6
f 709/2/6 710/2/6 712/2/6
f 710/2/6 707/2/6 713/2/6
f 712/2/6 710/2/6 713/2/6
f 713/2/6 707/2/6 714/2/6
f 705/2/6 706/2/6 715/2/6
f 696/2/6 705/2/6 715/2/6
f 715/2/6 706/2/6 716/2/6
f 716/2/6 706/2/6 717/2/6
f 712/2/6 713/2/6 718/2/6
f 711/2/6 712/2/6 718/2/6
f 716/2/6 717/2/6 719/2/6
f 717/2/6 718/2/6 719/2/6
f 718/2/6 713/2/6 720/2/6
f 719/2/6 718/2/6 720/2/6
f 721/2/6 722/2/6 723/2/6
f 723/2/6 722/2/6 724/2/6
f 725/2/6 726/2/6 727/2/6
f 727/2/6 728/2/6 729/2/6
f 729/2/6 728/2/6 730/2/6
f 725/2/6 727/2/6 731/2/6
f 727/2/6 729/2/6 731/2/6
f 731/2/6 729/2/6 732/2/6
f 733/2/6 734/2/6 736/2/6
f 735/2/6 736/2/6 737/2/6
f 736/2/6 734/2/6 738/2/6
f 737/2/6 736/2/6 738/2/6
f 739/2/6 740/2/6 741/2/6
f 741/2/6 740/2/6 742/2/6
f 745/2/6 746/2/6 747/2/6
f 747/2/6 746/2/6 748/2/6
f 743/2/6 744/2/6 749/2/6
f 749/2/6 744/2/6 750/2/6
f 751/2/6 752/2/6 753/2/6
f 753/2/6 752/2/6 754/2/6
f 755/2/6 756/2/6 757/2/6
f 757/2/6 756/2/6 758/2/6
f 759/2/6 760/2/6 761/2/6
f 761/2/6 760/2/6 762/2/6
f 762/2/6 760/2/6 763/2/6
f 763/2/6 760/2/6 764/2/6
f 759/2/6 761/2/6 765/2/6
f 765/2/6 761/2/6 766/2/6
